# xmcd
#
# Track frame offsets:
#	150
#	19617
#	33193
#	36329
#	51812
#	63255
#	77247
#	95451
#	114809
#	125350
#	140640
#	158145
#	175367
#	188810
#
# Disc length: 2746 seconds
#
# Revision: 0
# Processed by: cddbd v1.5.2PL0 Copyright (c) Steve Scherf et al.
# Submitted via: audiograbber 1.83.01
#
DISCID=b20ab80e
DTITLE=Big Al Anderson - After Hours
DYEAR=2006
DGENRE=Blues
TTITLE0=Love make a fool of me
TTITLE1=It's only natural
TTITLE2=interlude
TTITLE3=better word for love
TTITLE4=blues about you baby
TTITLE5=do nothin' day
TTITLE6=trip around the sun
TTITLE7=Right on time
TTITLE8=in my dreams
TTITLE9=movin' into the light
TTITLE10=what's a thousand miles
TTITLE11=let's get away for the weekend
TTITLE12=another place i don't belong
TTITLE13=two survivors
EXTD=
EXTT0=
EXTT1=
EXTT2=
EXTT3=
EXTT4=
EXTT5=
EXTT6=
EXTT7=
EXTT8=
EXTT9=
EXTT10=
EXTT11=
EXTT12=
EXTT13=
PLAYORDER=
